<svg xmlns="http://www.w3.org/2000/svg" xmlns:xlink="http://www.w3.org/1999/xlink" width="1920" zoomAndPan="magnify" viewBox="0 0 1440 809.999993" height="1080" preserveAspectRatio="xMidYMid meet" version="1.0"><defs><clipPath id="039404721d"><path d="M 225.945312 146.554688 L 503.445312 146.554688 L 503.445312 424.054688 L 225.945312 424.054688 Z M 225.945312 146.554688 " clip-rule="nonzero"/></clipPath></defs><g clip-path="url(#039404721d)"><path fill="#ff3131" d="M 364.769531 146.554688 C 288.097656 146.554688 225.945312 208.707031 225.945312 285.378906 C 225.945312 362.050781 288.097656 424.207031 364.769531 424.207031 C 441.441406 424.207031 503.597656 362.050781 503.597656 285.378906 C 503.597656 208.707031 441.441406 146.554688 364.769531 146.554688 Z M 445.496094 289.304688 C 441.539062 293.261719 435.699219 294.179688 430.859375 292.070312 L 430.859375 344.726562 C 430.859375 355.675781 421.984375 364.554688 411.035156 364.554688 L 318.507812 364.554688 C 307.554688 364.554688 298.679688 355.675781 298.679688 344.726562 L 298.679688 292.070312 C 293.84375 294.179688 288 293.261719 284.042969 289.304688 C 278.882812 284.140625 278.882812 275.773438 284.042969 270.609375 L 355.421875 199.230469 C 360.585938 194.070312 368.953125 194.070312 374.117188 199.230469 L 445.496094 270.609375 C 450.65625 275.773438 450.65625 284.140625 445.496094 289.304688 Z M 445.496094 289.304688 " fill-opacity="1" fill-rule="nonzero"/></g><path fill="#ff3131" d="M 381.292969 291.851562 L 348.246094 291.851562 C 344.597656 291.851562 341.636719 294.8125 341.636719 298.460938 L 341.636719 338.117188 C 341.636719 341.769531 344.597656 344.726562 348.246094 344.726562 L 381.292969 344.726562 C 384.941406 344.726562 387.902344 341.769531 387.902344 338.117188 L 387.902344 298.460938 C 387.902344 294.8125 384.941406 291.851562 381.292969 291.851562 Z M 381.292969 291.851562 " fill-opacity="1" fill-rule="nonzero"/></svg>