<?xml version="1.0" encoding="UTF-8"?>
<svg version="1.1" xmlns="http://www.w3.org/2000/svg" width="2000" height="2000">
<path d="M0 0 C660 0 1320 0 2000 0 C2000 660 2000 1320 2000 2000 C1340 2000 680 2000 0 2000 C0 1340 0 680 0 0 Z " fill="#000000" transform="translate(0,0)"/>
<path d="M0 0 C2.13785632 0.25418384 4.27658531 0.49811852 6.41607666 0.73809814 C60.18556486 6.87250722 112.67237541 22.99892437 153.1206665 60.31573486 C154.85470409 61.89788594 156.60828532 63.37832867 158.4487915 64.83135986 C162.12724794 68.01935544 165.17536406 71.51207863 168.2612915 75.26885986 C169.42531494 76.67651611 169.42531494 76.67651611 170.612854 78.11260986 C192.01147323 104.59397684 203.4971991 138.23960896 199.94049072 172.34503174 C198.30185277 185.73288301 195.99357469 198.61724562 191.2612915 211.26885986 C190.80883057 212.50249268 190.35636963 213.73612549 189.89019775 215.00714111 C179.91061899 241.43536945 164.37066662 266.57595432 145.66021729 287.67999268 C143.63838205 289.97634585 141.66206605 292.31062278 139.6807251 294.64190674 C132.18347493 303.44993128 124.57361202 312.07052557 116.31207275 320.17510986 C114.49458206 322.03068131 112.8769218 323.92680775 111.2612915 325.95635986 C105.67476964 332.60771601 97.28335932 337.71981461 88.56207275 338.51495361 C83.09838757 338.64166937 78.37306547 338.22656053 73.2612915 336.26885986 C71.2612915 334.26885986 71.2612915 334.26885986 70.64019775 330.66339111 C70.77639672 325.6713052 73.36476331 323.38930383 76.84918213 320.07965088 C77.62455322 319.37896484 78.39992432 318.67827881 79.1987915 317.95635986 C80.77402797 316.46277467 82.34567115 314.96539029 83.91363525 313.46417236 C84.67015381 312.74519775 85.42667236 312.02622314 86.20611572 311.28546143 C89.55438998 308.00003194 92.40115029 304.42969403 95.2925415 300.73760986 C97.34765607 298.16056144 99.52463397 295.75185227 101.7612915 293.33135986 C106.66405414 287.92900656 110.99691344 282.18053662 115.2612915 276.26885986 C115.71375244 275.64624268 116.16621338 275.02362549 116.63238525 274.38214111 C137.00867992 246.27500295 155.17327058 216.39067407 159.2612915 181.26885986 C159.35337891 180.49566406 159.44546631 179.72246826 159.54034424 178.92584229 C163.11665223 146.47558678 156.49795292 115.67200463 135.9776001 89.77374268 C134.75151338 88.26174176 133.50672176 86.76496778 132.2612915 85.26885986 C131.20554932 84.00042236 131.20554932 84.00042236 130.128479 82.70635986 C125.8648559 77.75721304 121.32771126 73.38586536 116.2612915 69.26885986 C114.89424072 68.14544189 114.89424072 68.14544189 113.49957275 66.99932861 C49.64893002 16.12711012 -42.07070557 15.08291273 -119.7387085 21.26885986 C-121.58480713 21.40566162 -121.58480713 21.40566162 -123.46820068 21.54522705 C-174.1532999 25.35764544 -224.41476853 34.60028343 -273.90672302 45.94314575 C-278.92242233 47.09076381 -283.94835009 48.18069408 -288.98187256 49.24688721 C-302.99239122 52.21723628 -316.86856124 55.70580329 -330.7387085 59.26885986 C-331.51714111 59.46866455 -332.29557373 59.66846924 -333.09759521 59.87432861 C-337.3228554 60.96524752 -341.53341895 62.10348424 -345.7387085 63.26885986 C-346.45848877 63.46769775 -347.17826904 63.66653564 -347.91986084 63.87139893 C-395.70781752 77.12991409 -443.04302365 92.98006939 -488.7387085 112.26885986 C-490.55000244 113.0314209 -490.55000244 113.0314209 -492.39788818 113.80938721 C-566.26515481 145.01643943 -637.72986241 183.87198128 -697.34417725 238.09307861 C-698.9628632 239.56389114 -700.59076821 241.02461141 -702.22698975 242.47589111 C-710.96211195 250.23289699 -719.17793713 258.3618642 -726.7387085 267.26885986 C-727.53663818 268.17764893 -728.33456787 269.08643799 -729.15667725 270.02276611 C-736.97714695 278.99313558 -743.92727673 288.51791883 -750.7387085 298.26885986 C-751.18601318 298.90549561 -751.63331787 299.54213135 -752.09417725 300.19805908 C-777.08820324 335.96835551 -792.73149469 373.43311235 -787.27386475 417.87823486 C-786.6277801 421.44125787 -785.79805139 424.80700724 -784.7387085 428.26885986 C-784.44069336 429.2477417 -784.44069336 429.2477417 -784.13665771 430.24639893 C-775.98988785 456.40149679 -761.55600682 480.10728573 -742.7855835 500.04229736 C-740.61493439 502.40349964 -738.65586249 504.87091737 -736.6762085 507.39385986 C-728.02281389 518.06284375 -718.02921131 527.78800773 -707.23480225 536.27276611 C-704.69670586 538.30244882 -702.3148682 540.44102782 -699.9262085 542.64385986 C-694.95932313 547.1641956 -689.73371059 551.2782648 -684.43011475 555.38995361 C-681.97757541 557.29272997 -679.54961204 559.22087468 -677.14105225 561.17901611 C-668.44176233 568.24887066 -659.48890965 574.87690232 -650.35882568 581.378479 C-648.36413957 582.81761938 -646.38251301 584.2694915 -644.40765381 585.7354126 C-635.27800115 592.50517197 -625.96480852 598.9324 -616.4887085 605.20635986 C-615.02548624 606.17827449 -613.56227016 607.15019843 -612.09906006 608.12213135 C-602.46067258 614.51411383 -592.77454422 620.81927391 -582.93890381 626.90460205 C-580.60332162 628.35280814 -578.27623137 629.81406107 -575.949646 631.27667236 C-562.6419877 639.61301958 -549.1092396 647.54423649 -535.54696655 655.45558167 C-531.42478954 657.86232742 -527.32415042 660.30037271 -523.2387085 662.76885986 C-514.82187864 667.84849052 -506.32761039 672.79631289 -497.84344482 677.76226807 C-490.36052426 682.14269371 -482.88693192 686.53818594 -475.4262085 690.95635986 C-460.61056658 699.72360743 -445.74104896 708.39734476 -430.81732178 716.97930908 C-421.41681832 722.38628782 -412.04647224 727.83154547 -402.76361084 733.43829346 C-397.62376247 736.54177121 -392.46935447 739.61907469 -387.3012085 742.67510986 C-362.04799791 757.6091112 -336.97276192 772.70788123 -312.7387085 789.26885986 C-311.96237061 789.79930908 -311.18603271 790.3297583 -310.38616943 790.87628174 C-302.64103825 796.19651924 -295.10974447 801.73036802 -287.69232178 807.49932861 C-272.61931734 819.96320337 -272.61931734 819.96320337 -254.0512085 823.72589111 C-245.16666198 822.50007514 -236.58797237 820.13253437 -228.01309204 817.546875 C-218.06914729 814.5618985 -208.05732587 812.09259838 -197.9262085 809.83135986 C-197.07064362 809.63909821 -196.21507874 809.44683655 -195.33358765 809.24874878 C-178.59168283 805.5038922 -161.77654266 802.50264126 -144.82269287 799.90216064 C-140.9301402 799.30359842 -137.04545556 798.661579 -133.1605835 798.01495361 C-94.08447077 791.64824445 -94.08447077 791.64824445 -82.6762085 799.33135986 C-80.40048973 802.78164315 -80.11218456 804.94599643 -79.97698975 808.98760986 C-81.14375866 812.48193317 -83.69829397 814.38005651 -86.7387085 816.26885986 C-90.23602295 817.03253174 -90.23602295 817.03253174 -94.10198975 817.23760986 C-94.80259521 817.28336151 -95.50320068 817.32911316 -96.22503662 817.37625122 C-97.72290596 817.47363253 -99.22139531 817.56184428 -100.7203064 817.64160156 C-104.67865692 817.8577123 -108.63021915 818.1576265 -112.5824585 818.46417236 C-113.76416374 818.55524765 -113.76416374 818.55524765 -114.96974182 818.64816284 C-125.75726456 819.53202556 -136.21392793 821.82464666 -146.7387085 824.26885986 C-150.0711826 825.03695703 -153.4046911 825.80045935 -156.7387085 826.56182861 C-157.67385284 826.77540512 -158.60899719 826.98898163 -159.57247925 827.20903015 C-165.98193736 828.66442001 -172.40183887 830.06326904 -178.83067322 831.43041992 C-183.51080683 832.42602984 -188.18812322 833.4345669 -192.86541748 834.44342041 C-195.25774787 834.95600406 -197.65133482 835.46275475 -200.04608154 835.96392822 C-203.57620068 836.70438057 -207.10093251 837.4669837 -210.62542725 838.23370361 C-212.20851936 838.55745216 -212.20851936 838.55745216 -213.82359314 838.88774109 C-220.97467977 840.47242762 -227.86098762 842.75341573 -233.7387085 847.26885986 C-234.71628168 849.23815211 -234.71628168 849.23815211 -234.7387085 851.26885986 C-233.60961855 853.85891313 -233.60961855 853.85891313 -231.8012085 856.45635986 C-231.23531006 857.33678955 -230.66941162 858.21721924 -230.08636475 859.12432861 C-228.14650549 861.72264259 -226.16209499 864.03337636 -223.97698975 866.41729736 C-219.3950929 871.50528771 -215.61977786 876.99252576 -211.8637085 882.70635986 C-211.16970947 883.75678467 -210.47571045 884.80720947 -209.76068115 885.88946533 C-192.48910457 912.30080205 -174.96673385 945.5550853 -181.6449585 978.21417236 C-186.22239912 997.79780876 -197.29521542 1013.68046695 -214.19940186 1024.90240479 C-216.78470884 1026.4279182 -219.39733177 1027.86611008 -222.0512085 1029.26885986 C-223.01123779 1029.78158447 -223.97126709 1030.29430908 -224.96038818 1030.8225708 C-264.87788871 1051.73298788 -309.3920404 1059.41431714 -354.0512085 1059.64385986 C-354.86042755 1059.65180573 -355.66964661 1059.65975159 -356.50338745 1059.66793823 C-386.68133515 1059.89648048 -415.72941663 1051.82435189 -437.7387085 1030.26885986 C-438.67843506 1029.38327393 -438.67843506 1029.38327393 -439.637146 1028.47979736 C-450.97734056 1016.83172422 -457.0310695 998.65731522 -457.1762085 982.70635986 C-456.73872672 956.96157119 -443.62297676 935.34153658 -425.96136475 917.45635986 C-418.37091183 910.29280485 -410.14021703 903.98620659 -401.76263428 897.77520752 C-399.98033163 896.44869277 -398.21514768 895.10310189 -396.45355225 893.74932861 C-380.0077562 881.46083417 -361.43902474 871.92474253 -343.22113037 862.55059814 C-340.43483207 861.11196064 -337.65669362 859.65826973 -334.8793335 858.20245361 C-325.20972583 853.13561024 -315.54121334 848.07524933 -305.7387085 843.26885986 C-305.3254223 838.35453917 -305.3254223 838.35453917 -307.21136475 833.94073486 C-310.61100963 830.34667443 -314.41612425 827.58529204 -318.4262085 824.70635986 C-319.26981934 824.09357178 -320.11343018 823.48078369 -320.98260498 822.84942627 C-323.56198519 820.98075816 -326.14905629 819.12325906 -328.7387085 817.26885986 C-329.48475342 816.73244873 -330.23079834 816.1960376 -330.99945068 815.64337158 C-341.74241927 807.93091149 -352.66347122 800.49557753 -363.7387085 793.26885986 C-364.81547852 792.56624023 -364.81547852 792.56624023 -365.91400146 791.84942627 C-379.17124098 783.24552866 -392.80738156 775.29553659 -406.46192932 767.34620667 C-411.9019519 764.17796602 -417.32273957 760.97798495 -422.7387085 757.76885986 C-440.77998799 747.09674269 -458.83798346 736.45790674 -477.0512085 726.08135986 C-498.33903239 713.9513529 -519.4374853 701.5102245 -540.49266052 688.9822998 C-545.35393073 686.09046581 -550.21917753 683.20540964 -555.08636475 680.32354736 C-600.04427359 653.6982792 -644.24305002 625.79365922 -686.44866943 594.94122314 C-688.80448933 593.22082162 -691.16604175 591.50848121 -693.527771 589.79620361 C-703.26388686 582.71021291 -712.73300074 575.378209 -722.00628662 567.69708252 C-724.48181727 565.65623496 -726.98869064 563.65458851 -729.4887085 561.64385986 C-734.40572644 557.62151736 -739.0725664 553.37046915 -743.71917725 549.04229736 C-745.96924699 546.952104 -748.27285818 544.93516522 -750.5980835 542.92901611 C-754.84051319 539.23128723 -758.83453184 535.32112096 -762.8012085 531.33135986 C-763.4695874 530.66684814 -764.13796631 530.00233643 -764.82659912 529.31768799 C-768.77150964 525.36511 -772.5222207 521.29984225 -776.16864014 517.07086182 C-778.1848813 514.75677753 -780.30852126 512.55252919 -782.4262085 510.33135986 C-800.6708367 490.23742744 -815.31004844 464.70979247 -824.1137085 439.08135986 C-824.34042236 438.43022217 -824.56713623 437.77908447 -824.80072021 437.10821533 C-828.99831672 424.12377649 -830.29736628 411.08142704 -830.1762085 397.51885986 C-830.17283478 396.77906891 -830.16946106 396.03927795 -830.16598511 395.27706909 C-830.08674477 383.23043063 -829.14882437 371.86521226 -825.7387085 360.26885986 C-825.50264893 359.44240967 -825.26658936 358.61595947 -825.02337646 357.76446533 C-815.06688883 323.67103798 -796.60220106 294.17407902 -773.7387085 267.26885986 C-772.83107273 266.1868988 -771.92352595 265.1048631 -771.01605225 264.02276611 C-752.18101977 241.68881013 -752.18101977 241.68881013 -741.72698975 233.00323486 C-739.10476087 230.71586822 -736.67951957 228.24565646 -734.2387085 225.76885986 C-729.90199035 221.38577939 -725.44945248 217.24589505 -720.7387085 213.26885986 C-719.77320068 212.43741455 -718.80769287 211.60596924 -717.81292725 210.74932861 C-710.32339131 204.31879204 -702.63535253 198.19236207 -694.7387085 192.26885986 C-694.02940186 191.73357666 -693.32009521 191.19829346 -692.58929443 190.64678955 C-681.59277007 182.36314657 -670.40834175 174.57055794 -658.7387085 167.26885986 C-657.93207764 166.76000244 -657.12544678 166.25114502 -656.29437256 165.72686768 C-644.26380482 158.14147713 -632.08438739 150.86701111 -619.67669678 143.91583252 C-617.6390309 142.77356112 -615.60370558 141.62710833 -613.57025146 140.47735596 C-567.21920472 114.29250903 -519.04601044 92.48788552 -468.9887085 74.39385986 C-467.88755707 73.99575104 -467.88755707 73.99575104 -466.76416016 73.58959961 C-451.54523409 68.10273683 -436.22548509 62.949019 -420.7387085 58.26885986 C-418.96642926 57.72766396 -417.19430797 57.18595067 -415.42230225 56.64385986 C-410.44145934 55.12099869 -405.45808698 53.60665657 -400.4730835 52.09747314 C-398.80592299 51.59226397 -397.13915243 51.08576268 -395.4730835 50.57696533 C-384.87844656 47.34448903 -374.19061081 44.53502162 -363.46063232 41.78668213 C-357.83660196 40.34368213 -352.23854029 38.87089806 -346.6762085 37.20635986 C-335.83069728 34.05251182 -324.75365711 31.74479863 -313.7387085 29.26885986 C-312.35358456 28.95601675 -310.96849428 28.64302453 -309.58343506 28.32989502 C-299.7236394 26.10275814 -289.85625303 23.9117856 -279.98022461 21.75775146 C-278.51830979 21.4388968 -277.05651199 21.11950496 -275.59484863 20.79949951 C-243.98392702 13.88475458 -212.04293015 8.37053284 -179.90814209 4.53204346 C-176.70144994 4.14302544 -173.5017672 3.70514104 -170.3012085 3.26885986 C-169.10753662 3.1128833 -167.91386475 2.95690674 -166.684021 2.79620361 C-163.82000722 2.41338989 -160.96397984 2.00754887 -158.105896 1.58526611 C-105.95097592 -5.83758626 -52.2572112 -6.25777365 0 0 Z " fill="#FC3030" transform="translate(1691.7387084960938,368.73114013671875)"/>
<path d="M0 0 C0.68449219 0.52207031 1.36898438 1.04414062 2.07421875 1.58203125 C15.92586133 12.84803388 22.42042401 30.38622277 24.65234375 47.66015625 C27.13089008 74.13813077 23.36340911 100.8505473 18.125 126.75 C17.99272003 127.40608246 17.86044006 128.06216492 17.72415161 128.73812866 C15.12794878 141.5972352 12.43041721 154.37076756 8.6953125 166.953125 C8.47794937 167.68801651 8.26058624 168.42290802 8.03663635 169.18006897 C-2.97006326 206.26471313 -15.2521327 242.64128484 -31 278 C-31.27392578 278.61597046 -31.54785156 279.23194092 -31.83007812 279.86657715 C-62.60122389 348.92178781 -62.60122389 348.92178781 -77 358 C-84.68298472 360.56099491 -92.8424261 359.5137181 -100 356 C-101.71484375 354.89453125 -101.71484375 354.89453125 -103 353 C-103.41442531 347.08637881 -102.68548709 343.32061379 -100.16796875 337.85546875 C-99.71325699 336.85055893 -99.71325699 336.85055893 -99.24935913 335.8253479 C-98.58943762 334.37173001 -97.92266293 332.92120783 -97.24978638 331.47354126 C-96.15984252 329.12798109 -95.08841914 326.77469948 -94.02124023 324.41870117 C-92.48511062 321.03004509 -90.94255667 317.64442656 -89.39550781 314.26074219 C-85.38575746 305.47392088 -81.4697363 296.64528206 -77.5625 287.8125 C-77.16546875 286.91516144 -76.7684375 286.01782288 -76.359375 285.09329224 C-57.42215494 242.23509596 -39.57803946 198.88437667 -26 154 C-25.80363953 153.35140015 -25.60727905 152.70280029 -25.40496826 152.0345459 C-20.60487846 136.10567794 -16.71635671 120.27258829 -14.40966797 103.78881836 C-14.12677413 101.86301599 -13.81117532 99.94183484 -13.46923828 98.02563477 C-11.89627029 88.98282277 -11.60058782 80.08602473 -11.625 70.9375 C-11.62554382 70.16953094 -11.62608765 69.40156189 -11.62664795 68.61032104 C-11.68413058 50.92797439 -12.51260405 32.10719525 -24.5625 18 C-25.7690625 17.01 -25.7690625 17.01 -27 16 C-27.721875 15.319375 -28.44375 14.63875 -29.1875 13.9375 C-34.70053388 10.13963222 -41.30599944 7.53552004 -48 7 C-48.76828125 6.92523437 -49.5365625 6.85046875 -50.328125 6.7734375 C-60.60473004 6.22803109 -70.23310795 9.13842446 -80 12 C-80.71285156 12.20866699 -81.42570312 12.41733398 -82.16015625 12.63232422 C-122.61131111 24.87873599 -158.93249176 50.98836912 -190.34790039 78.55126953 C-191.52896454 79.58694777 -192.71343624 80.61874529 -193.90014648 81.64794922 C-198.62756627 85.75580312 -203.24942137 89.96060472 -207.8125 94.25 C-208.504646 94.9004126 -209.19679199 95.5508252 -209.90991211 96.22094727 C-217.65692021 103.52783548 -225.34453946 110.87681765 -232.265625 118.984375 C-234.25912581 121.30114621 -236.31554388 123.55419984 -238.375 125.8125 C-243.10571502 131.06175883 -247.57083694 136.49558996 -252 142 C-252.91374442 143.12135302 -253.82782139 144.24243511 -254.7421875 145.36328125 C-257.86864708 149.21062347 -260.9470887 153.09408323 -264 157 C-264.48968262 157.62648438 -264.97936523 158.25296875 -265.48388672 158.8984375 C-284.30508025 183.2238838 -301.34715221 209.53813629 -317 236 C-317.56090332 236.94359375 -318.12180664 237.8871875 -318.69970703 238.859375 C-359.48086322 307.7293113 -391.57998012 381.85657512 -413 459 C-413.2460498 459.88123535 -413.49209961 460.7624707 -413.74560547 461.67041016 C-415.28387086 467.1899506 -416.7911993 472.71699738 -418.26757812 478.25341797 C-418.73699347 480.01372551 -419.20938013 481.77324499 -419.68554688 483.53173828 C-432.73200658 532.00217227 -441.10334987 582.0664588 -446 632 C-446.12882568 633.24692627 -446.12882568 633.24692627 -446.26025391 634.51904297 C-447.08904242 643.26068239 -447.18153602 651.9708644 -447.203125 660.7421875 C-447.20595238 661.53221287 -447.20877975 662.32223824 -447.21169281 663.13620377 C-447.22660173 667.33348153 -447.23587834 671.53072578 -447.24023438 675.72802734 C-447.24458015 679.12722741 -447.25833085 682.52616809 -447.28125 685.92529297 C-447.57782516 730.8317577 -443.57274604 774.89261537 -427 817 C-426.48179687 818.32499512 -426.48179687 818.32499512 -425.953125 819.67675781 C-418.68030411 838.04198744 -409.59378917 855.69203213 -397 871 C-396.140625 872.07421875 -395.28125 873.1484375 -394.421875 874.22265625 C-379.58223226 892.5175554 -361.34530155 905.25489533 -340 915 C-338.9171875 915.50273438 -337.834375 916.00546875 -336.71875 916.5234375 C-322.8142285 922.39423547 -307.02036617 925.25541087 -292 926 C-291.09652832 926.04914551 -290.19305664 926.09829102 -289.26220703 926.14892578 C-249.10277761 928.02603766 -208.8860463 915.12925035 -173 898 C-171.00537756 897.06214002 -169.01057745 896.1246578 -167.015625 895.1875 C-125.02406208 875.35488353 -84.60537513 852.03104983 -49 822 C-48.46165527 821.54657227 -47.92331055 821.09314453 -47.36865234 820.62597656 C-45.59626732 819.12991771 -43.82849575 817.6285943 -42.0625 816.125 C-41.53769043 815.67962891 -41.01288086 815.23425781 -40.47216797 814.77539062 C-30.1051516 805.88848631 -20.27672657 796.4633343 -10.6262207 786.81152344 C-8.80894012 784.99644443 -6.98376167 783.18956093 -5.15820312 781.3828125 C1.69674185 774.56031085 7.9985106 767.59323376 14 760 C14.92281173 758.90969214 15.85245489 757.82507506 16.79296875 756.75 C24.13371052 748.31952332 30.73462693 739.41616657 37.28417969 730.36279297 C38.84579307 728.21235268 40.42293939 726.07472748 42.0078125 723.94140625 C57.67687763 702.72647605 72.207343 680.473819 86 658 C86.39396973 657.36078613 86.78793945 656.72157227 87.19384766 656.06298828 C95.52509994 642.50687548 103.24864879 628.66412133 110.25 614.375 C116.22667003 602.22293888 123.00716863 590.59056454 130 579 C130.46245117 578.22462891 130.92490234 577.44925781 131.40136719 576.65039062 C132.5852123 574.67339643 133.78695111 572.70917234 135 570.75 C135.639375 569.71359375 136.27875 568.6771875 136.9375 567.609375 C139.86403517 563.90686459 142.99777825 561.27303024 147.75 560.625 C150 561 150 561 152 563 C152.43569502 568.68218918 151.6875342 573.04071056 149.5 578.3125 C149.20013184 579.05628906 148.90026367 579.80007813 148.59130859 580.56640625 C134.78533916 614.07010598 118.7618151 647.05717033 100.52636719 678.36621094 C98.95959464 681.06972057 97.41805639 683.78628748 95.8828125 686.5078125 C90.28094166 696.42829062 84.52055717 706.20710992 78.38964844 715.80957031 C76.83039716 718.26733602 75.29391725 720.73864281 73.7578125 723.2109375 C66.03920659 735.57485955 57.84947129 747.42099994 49 759 C48.41186523 759.77359863 47.82373047 760.54719727 47.21777344 761.34423828 C36.97166692 774.79400181 26.2051571 787.67256308 14.7109375 800.0703125 C12.89243746 802.0355503 11.08408212 804.00590589 9.2890625 805.9921875 C1.0228227 815.12535994 -7.43278105 824.1248573 -16.83203125 832.109375 C-19.09813687 834.08558242 -21.28539158 836.13631538 -23.47314453 838.19848633 C-30.02586993 844.35316707 -36.82422736 850.02728559 -43.98046875 855.46484375 C-45.40024749 856.54409529 -46.81661814 857.62783777 -48.23046875 858.71484375 C-66.37654874 872.66183085 -85.26682049 885.40430599 -105 897 C-105.69029297 897.40637695 -106.38058594 897.81275391 -107.09179688 898.23144531 C-153.09196287 925.07567364 -206.91278208 947.01892895 -260.87109375 947.203125 C-262.18803726 947.20882507 -263.50498077 947.21452515 -264.86183167 947.22039795 C-267.64120867 947.23083748 -270.42055739 947.23672476 -273.19995117 947.24023438 C-276.00900385 947.24460141 -278.81774634 947.25843759 -281.62670898 947.28125 C-297.31791925 947.40608884 -312.57729295 947.24362893 -328 944 C-329.02005127 943.80647949 -330.04010254 943.61295898 -331.09106445 943.41357422 C-376.71885601 934.4936032 -417.02823971 906.22583945 -443 868 C-467.02772886 831.43152447 -480.11066774 788.37680581 -485.625 745.25 C-485.73610107 744.38375 -485.84720215 743.5175 -485.96166992 742.625 C-486.34544392 739.41972876 -486.67765406 736.21208737 -487 733 C-487.08224823 732.20546417 -487.16449646 731.41092834 -487.24923706 730.59231567 C-488.97859237 713.53034651 -489.36131885 696.57880118 -489.3125 679.4375 C-489.31057449 678.09058646 -489.30873418 676.7436728 -489.30697632 675.39675903 C-489.22279137 630.9260263 -483.99054491 587.70106256 -476 544 C-475.80438477 542.91106445 -475.60876953 541.82212891 -475.40722656 540.70019531 C-472.49303498 524.53879674 -468.88611944 508.60193986 -464.91162109 492.66992188 C-463.99658246 488.98624199 -463.10000834 485.29845913 -462.20703125 481.609375 C-459.11906361 468.93393028 -455.73943529 456.4655016 -451.66455078 444.07373047 C-450.63566479 440.8630921 -449.7312504 437.61861702 -448.8125 434.375 C-442.11019442 411.19017612 -433.99454964 388.38419904 -425 366 C-424.48605652 364.71358515 -423.97222603 363.42712515 -423.45849609 362.140625 C-391.58132299 282.48082485 -351.3367024 205.75652009 -297 139 C-295.97870294 137.72953931 -294.95791273 136.45867108 -293.9375 135.1875 C-288.43912762 128.35538395 -282.89822754 121.6150054 -276.96875 115.1484375 C-275.15344263 113.16744732 -273.38307216 111.15673433 -271.625 109.125 C-264.27453097 100.71968006 -256.69204017 92.59730729 -248.8125 84.6875 C-248.15967041 84.03007813 -247.50684082 83.37265625 -246.83422852 82.6953125 C-242.95316352 78.82645979 -238.95843294 75.14589475 -234.81030273 71.56518555 C-232.54365738 69.60544673 -230.33528505 67.58540794 -228.125 65.5625 C-223.2318713 61.16310567 -218.21081047 57.01734575 -213 53 C-212.32211426 52.47664062 -211.64422852 51.95328125 -210.94580078 51.4140625 C-193.71929617 38.16573595 -175.8885484 25.77241494 -157 15 C-156.39430176 14.64663574 -155.78860352 14.29327148 -155.16455078 13.92919922 C-133.74045834 1.51112953 -110.04422639 -6.45325 -86 -12 C-85.2054541 -12.19062012 -84.4109082 -12.38124023 -83.59228516 -12.57763672 C-56.49751518 -18.89232539 -22.71333565 -17.78539301 0 0 Z " fill="#FD3030" transform="translate(728,585)"/>
<path d="M0 0 C3.62547008 2.34480587 6.31756453 5.25596742 9.04296875 8.57421875 C9.55061768 9.18152832 10.0582666 9.78883789 10.58129883 10.41455078 C33.53510535 38.3236105 51.92350889 71.3005805 49.35546875 108.38671875 C48.15591086 117.1639716 44.81164693 124.48034584 39.35546875 131.38671875 C38.63359375 132.39734375 37.91171875 133.40796875 37.16796875 134.44921875 C14.86732306 159.90561619 -33.16427409 168.52844891 -64.64453125 171.38671875 C-71.32899413 171.7827859 -77.95984105 171.69026835 -84.64453125 171.38671875 C-85.670625 171.36609375 -86.69671875 171.34546875 -87.75390625 171.32421875 C-103.7276005 170.56806754 -119.77945543 163.3990736 -130.6796875 151.76953125 C-140.67999788 139.64191827 -144.7833782 125.96746537 -143.64453125 110.38671875 C-141.15418632 94.6515457 -134.33289282 81.19595719 -123.64453125 69.38671875 C-122.97679687 68.62617187 -122.3090625 67.865625 -121.62109375 67.08203125 C-96.77278696 40.48998363 -60.70751267 22.60980108 -28.64453125 6.38671875 C-27.73912598 5.92330078 -26.8337207 5.45988281 -25.90087891 4.98242188 C-23.59489514 3.80701762 -21.27939939 2.65432812 -18.95703125 1.51171875 C-17.99796875 1.02034424 -17.99796875 1.02034424 -17.01953125 0.51904297 C-10.87022335 -2.42887203 -6.18517109 -2.73791604 0 0 Z " fill="#000000" transform="translate(1418.64453125,1234.61328125)"/>
</svg>
