<svg xmlns="http://www.w3.org/2000/svg" xmlns:xlink="http://www.w3.org/1999/xlink" width="1920" zoomAndPan="magnify" viewBox="0 0 1440 809.999993" height="1080" preserveAspectRatio="xMidYMid meet" version="1.0"><defs><clipPath id="a6ecb5ea4b"><path d="M 545 552.171875 L 674 552.171875 L 674 699.171875 L 545 699.171875 Z M 545 552.171875 " clip-rule="nonzero"/></clipPath></defs><g clip-path="url(#a6ecb5ea4b)"><path fill="#ff3131" d="M 672.28125 571.121094 C 671.328125 570.171875 670.203125 569.695312 668.90625 569.695312 C 668.257812 569.695312 666.894531 570.226562 664.824219 571.273438 C 662.746094 572.324219 660.542969 573.492188 658.226562 574.796875 C 655.902344 576.09375 653.152344 577.269531 649.976562 578.320312 C 646.808594 579.367188 643.871094 579.898438 641.167969 579.898438 C 638.671875 579.898438 636.46875 579.421875 634.570312 578.472656 C 628.277344 575.523438 622.800781 573.324219 618.15625 571.871094 C 613.507812 570.421875 608.507812 569.695312 603.15625 569.695312 C 593.917969 569.695312 583.394531 572.699219 571.597656 578.699219 C 569.164062 579.910156 567.417969 580.851562 566.289062 581.539062 L 565.167969 573.320312 C 567.699219 571.121094 569.335938 567.917969 569.335938 564.300781 C 569.335938 557.671875 563.964844 552.300781 557.335938 552.300781 C 550.710938 552.300781 545.339844 557.671875 545.339844 564.300781 C 545.339844 568.621094 547.648438 572.378906 551.078125 574.492188 L 567.285156 693.34375 C 567.765625 696.882812 570.792969 699.449219 574.269531 699.449219 C 574.585938 699.449219 574.910156 699.429688 575.234375 699.386719 C 579.097656 698.855469 581.800781 695.300781 581.273438 691.4375 L 574.757812 643.667969 C 586.578125 637.804688 596.804688 634.847656 605.40625 634.847656 C 609.054688 634.847656 612.617188 635.390625 616.085938 636.492188 C 619.5625 637.597656 622.449219 638.796875 624.746094 640.089844 C 627.046875 641.390625 629.761719 642.59375 632.878906 643.6875 C 636.007812 644.789062 639.09375 645.339844 642.140625 645.339844 C 649.835938 645.339844 659.054688 642.441406 669.800781 636.644531 C 671.152344 635.941406 672.140625 635.253906 672.761719 634.578125 C 673.386719 633.90625 673.699219 632.945312 673.699219 631.695312 L 673.699219 574.496094 C 673.699219 573.199219 673.230469 572.074219 672.28125 571.121094 Z M 672.28125 571.121094 " fill-opacity="1" fill-rule="nonzero"/></g></svg>