<svg xmlns="http://www.w3.org/2000/svg" xmlns:xlink="http://www.w3.org/1999/xlink" width="1920" zoomAndPan="magnify" viewBox="0 0 1440 809.999993" height="1080" preserveAspectRatio="xMidYMid meet" version="1.0"><defs><clipPath id="d3de3b64b6"><path d="M 703 262 L 784 262 L 784 342.210938 L 703 342.210938 Z M 703 262 " clip-rule="nonzero"/></clipPath></defs><path fill="#ffffff" d="M 743.621094 340.191406 C 742.394531 340.191406 741.167969 340.132812 739.945312 340.011719 C 738.722656 339.890625 737.511719 339.710938 736.304688 339.472656 C 735.101562 339.234375 733.914062 338.933594 732.738281 338.578125 C 731.5625 338.222656 730.40625 337.808594 729.273438 337.339844 C 728.140625 336.867188 727.03125 336.34375 725.945312 335.765625 C 724.863281 335.1875 723.8125 334.554688 722.792969 333.875 C 721.769531 333.191406 720.785156 332.460938 719.835938 331.683594 C 718.886719 330.902344 717.976562 330.078125 717.109375 329.210938 C 716.242188 328.34375 715.417969 327.433594 714.640625 326.484375 C 713.859375 325.535156 713.128906 324.550781 712.449219 323.53125 C 711.765625 322.507812 711.136719 321.457031 710.554688 320.375 C 709.976562 319.292969 709.453125 318.183594 708.984375 317.046875 C 708.511719 315.914062 708.101562 314.757812 707.742188 313.585938 C 707.386719 312.410156 707.089844 311.21875 706.847656 310.015625 C 706.609375 308.8125 706.429688 307.597656 706.308594 306.375 C 706.1875 305.152344 706.128906 303.929688 706.128906 302.703125 C 706.128906 301.472656 706.1875 300.25 706.308594 299.027344 C 706.429688 297.804688 706.609375 296.589844 706.847656 295.386719 C 707.089844 294.183594 707.386719 292.992188 707.742188 291.816406 C 708.101562 290.644531 708.511719 289.488281 708.984375 288.355469 C 709.453125 287.21875 709.976562 286.109375 710.554688 285.027344 C 711.136719 283.945312 711.765625 282.894531 712.449219 281.871094 C 713.128906 280.851562 713.859375 279.867188 714.640625 278.917969 C 715.417969 277.96875 716.242188 277.058594 717.109375 276.191406 C 717.976562 275.324219 718.886719 274.5 719.835938 273.71875 C 720.785156 272.941406 721.769531 272.210938 722.792969 271.527344 C 723.8125 270.847656 724.863281 270.214844 725.945312 269.636719 C 727.03125 269.058594 728.140625 268.535156 729.273438 268.0625 C 730.40625 267.59375 731.5625 267.179688 732.738281 266.824219 C 733.914062 266.46875 735.101562 266.167969 736.304688 265.929688 C 737.511719 265.691406 738.722656 265.511719 739.945312 265.390625 C 741.167969 265.269531 742.394531 265.210938 743.621094 265.210938 C 744.847656 265.210938 746.074219 265.269531 747.296875 265.390625 C 748.515625 265.511719 749.730469 265.691406 750.933594 265.929688 C 752.140625 266.167969 753.328125 266.46875 754.503906 266.824219 C 755.679688 267.179688 756.832031 267.59375 757.96875 268.0625 C 759.101562 268.535156 760.210938 269.058594 761.292969 269.636719 C 762.375 270.214844 763.429688 270.847656 764.449219 271.527344 C 765.472656 272.210938 766.457031 272.941406 767.40625 273.71875 C 768.355469 274.5 769.261719 275.324219 770.132812 276.191406 C 771 277.058594 771.824219 277.96875 772.601562 278.917969 C 773.382812 279.867188 774.113281 280.851562 774.792969 281.871094 C 775.476562 282.894531 776.105469 283.945312 776.683594 285.027344 C 777.265625 286.109375 777.789062 287.21875 778.257812 288.355469 C 778.726562 289.488281 779.140625 290.644531 779.496094 291.816406 C 779.855469 292.992188 780.152344 294.183594 780.390625 295.386719 C 780.632812 296.589844 780.8125 297.804688 780.929688 299.027344 C 781.050781 300.25 781.113281 301.472656 781.113281 302.703125 C 781.113281 303.929688 781.050781 305.152344 780.929688 306.375 C 780.8125 307.597656 780.632812 308.8125 780.390625 310.015625 C 780.152344 311.21875 779.855469 312.410156 779.496094 313.585938 C 779.140625 314.757812 778.726562 315.914062 778.257812 317.046875 C 777.789062 318.183594 777.265625 319.292969 776.683594 320.375 C 776.105469 321.457031 775.476562 322.507812 774.792969 323.53125 C 774.113281 324.550781 773.382812 325.535156 772.601562 326.484375 C 771.824219 327.433594 771 328.34375 770.132812 329.210938 C 769.261719 330.078125 768.355469 330.902344 767.40625 331.683594 C 766.457031 332.460938 765.472656 333.191406 764.449219 333.875 C 763.429688 334.554688 762.375 335.1875 761.292969 335.765625 C 760.210938 336.34375 759.101562 336.867188 757.96875 337.339844 C 756.832031 337.808594 755.679688 338.222656 754.503906 338.578125 C 753.328125 338.933594 752.140625 339.234375 750.933594 339.472656 C 749.730469 339.710938 748.515625 339.890625 747.296875 340.011719 C 746.074219 340.132812 744.847656 340.191406 743.621094 340.191406 Z M 743.621094 340.191406 " fill-opacity="1" fill-rule="nonzero"/><path fill="#ff3131" d="M 731.125 314.417969 C 731.125 317.003906 729.027344 319.105469 726.4375 319.105469 C 723.851562 319.105469 721.75 317.003906 721.75 314.417969 L 721.75 290.984375 C 721.75 288.398438 723.847656 286.296875 726.4375 286.296875 C 729.023438 286.296875 731.125 288.398438 731.125 290.984375 Z M 731.125 314.417969 " fill-opacity="1" fill-rule="nonzero"/><path fill="#ff3131" d="M 748.308594 314.417969 C 748.308594 317.003906 746.210938 319.105469 743.621094 319.105469 C 741.035156 319.105469 738.933594 317.003906 738.933594 314.417969 L 738.933594 290.984375 C 738.933594 288.398438 741.03125 286.296875 743.621094 286.296875 C 746.207031 286.296875 748.308594 288.398438 748.308594 290.984375 Z M 748.308594 314.417969 " fill-opacity="1" fill-rule="nonzero"/><path fill="#ff3131" d="M 765.492188 314.417969 C 765.492188 317.003906 763.394531 319.105469 760.804688 319.105469 C 758.21875 319.105469 756.117188 317.003906 756.117188 314.417969 L 756.117188 290.984375 C 756.117188 288.398438 758.214844 286.296875 760.804688 286.296875 C 763.390625 286.296875 765.492188 288.398438 765.492188 290.984375 Z M 765.492188 314.417969 " fill-opacity="1" fill-rule="nonzero"/><g clip-path="url(#d3de3b64b6)"><path fill="#ffffff" d="M 715.453125 274.535156 C 731.019531 258.964844 756.21875 258.964844 771.789062 274.535156 C 787.355469 290.101562 787.359375 315.300781 771.789062 330.867188 C 764.265625 338.390625 754.261719 342.535156 743.621094 342.535156 C 732.980469 342.535156 722.976562 338.390625 715.453125 330.867188 C 699.886719 315.300781 699.882812 290.101562 715.453125 274.535156 Z M 778.769531 302.703125 C 778.769531 283.320312 763 267.554688 743.621094 267.554688 C 724.238281 267.554688 708.472656 283.320312 708.472656 302.703125 C 708.472656 322.082031 724.238281 337.847656 743.621094 337.847656 C 763 337.847656 778.769531 322.082031 778.769531 302.703125 Z M 778.769531 302.703125 " fill-opacity="1" fill-rule="nonzero"/></g></svg>