<svg xmlns="http://www.w3.org/2000/svg" xmlns:xlink="http://www.w3.org/1999/xlink" width="1920" zoomAndPan="magnify" viewBox="0 0 1440 809.999993" height="1080" preserveAspectRatio="xMidYMid meet" version="1.0"><defs><clipPath id="f1adaa4e08"><path d="M 345 230 L 457.648438 230 L 457.648438 342 L 345 342 Z M 345 230 " clip-rule="nonzero"/></clipPath></defs><path fill="#ff3131" d="M 437.03125 323.265625 C 436.660156 326.613281 433.179688 328.828125 427.886719 332.191406 C 418.699219 338.03125 409.523438 338.652344 405.605469 338.886719 C 393.480469 339.605469 384.554688 335.875 379.902344 333.867188 C 371.957031 330.433594 367.984375 328.722656 367.332031 325.5 C 365.75 317.664062 383.738281 303.402344 402.464844 303.183594 C 420.082031 302.976562 437.921875 315.121094 437.03125 323.265625 Z M 437.03125 323.265625 " fill-opacity="1" fill-rule="nonzero"/><g clip-path="url(#f1adaa4e08)"><path fill="#ff3131" d="M 451.847656 286.171875 C 451.695312 307.027344 438.546875 326.300781 418.773438 333.386719 C 398.996094 340.46875 376.203125 334.261719 362.71875 317.90625 C 349.4375 301.800781 347.847656 278.269531 358.535156 260.410156 C 369.320312 242.386719 390.945312 232.699219 411.574219 236.941406 C 434.855469 241.722656 451.671875 262.480469 451.839844 286.171875 C 451.867188 289.757812 457.445312 289.769531 457.417969 286.171875 C 457.25 262.957031 442.71875 241.976562 420.945312 233.828125 C 399.148438 225.671875 373.574219 232.542969 358.769531 250.484375 C 343.890625 268.519531 341.667969 294.597656 353.714844 314.742188 C 365.710938 334.792969 389.40625 345.269531 412.316406 340.921875 C 438.339844 335.984375 457.230469 312.449219 457.417969 286.171875 C 457.445312 282.578125 451.867188 282.578125 451.839844 286.171875 Z M 451.847656 286.171875 " fill-opacity="1" fill-rule="nonzero"/></g><path fill="#ff3131" d="M 424.320312 272.808594 C 424.320312 273.570312 424.285156 274.324219 424.210938 275.082031 C 424.136719 275.835938 424.023438 276.585938 423.875 277.328125 C 423.730469 278.074219 423.542969 278.808594 423.324219 279.535156 C 423.105469 280.261719 422.847656 280.972656 422.558594 281.675781 C 422.269531 282.375 421.945312 283.0625 421.585938 283.730469 C 421.230469 284.398438 420.839844 285.050781 420.417969 285.679688 C 419.996094 286.3125 419.542969 286.921875 419.0625 287.507812 C 418.582031 288.09375 418.074219 288.65625 417.535156 289.191406 C 417 289.726562 416.4375 290.238281 415.851562 290.71875 C 415.265625 291.199219 414.65625 291.652344 414.027344 292.074219 C 413.394531 292.496094 412.746094 292.882812 412.074219 293.242188 C 411.40625 293.597656 410.722656 293.921875 410.019531 294.214844 C 409.320312 294.503906 408.605469 294.757812 407.878906 294.980469 C 407.152344 295.199219 406.417969 295.382812 405.675781 295.53125 C 404.929688 295.679688 404.179688 295.792969 403.425781 295.867188 C 402.671875 295.941406 401.914062 295.976562 401.15625 295.976562 C 400.394531 295.976562 399.640625 295.941406 398.882812 295.867188 C 398.128906 295.792969 397.378906 295.679688 396.636719 295.53125 C 395.890625 295.382812 395.15625 295.199219 394.429688 294.980469 C 393.703125 294.757812 392.988281 294.503906 392.289062 294.214844 C 391.589844 293.921875 390.902344 293.597656 390.234375 293.242188 C 389.566406 292.882812 388.914062 292.496094 388.285156 292.074219 C 387.652344 291.652344 387.042969 291.199219 386.457031 290.71875 C 385.871094 290.238281 385.308594 289.726562 384.773438 289.191406 C 384.238281 288.65625 383.726562 288.09375 383.246094 287.507812 C 382.765625 286.921875 382.3125 286.3125 381.890625 285.679688 C 381.46875 285.050781 381.082031 284.398438 380.722656 283.730469 C 380.367188 283.0625 380.042969 282.375 379.75 281.675781 C 379.460938 280.972656 379.207031 280.261719 378.984375 279.535156 C 378.765625 278.808594 378.582031 278.074219 378.433594 277.328125 C 378.285156 276.585938 378.171875 275.835938 378.097656 275.082031 C 378.023438 274.324219 377.988281 273.570312 377.988281 272.808594 C 377.988281 272.050781 378.023438 271.292969 378.097656 270.539062 C 378.171875 269.785156 378.285156 269.035156 378.433594 268.289062 C 378.582031 267.546875 378.765625 266.8125 378.984375 266.085938 C 379.207031 265.359375 379.460938 264.644531 379.75 263.945312 C 380.042969 263.242188 380.367188 262.558594 380.722656 261.890625 C 381.082031 261.21875 381.46875 260.570312 381.890625 259.9375 C 382.3125 259.308594 382.765625 258.699219 383.246094 258.113281 C 383.726562 257.527344 384.238281 256.964844 384.773438 256.429688 C 385.308594 255.890625 385.871094 255.382812 386.457031 254.902344 C 387.042969 254.421875 387.652344 253.96875 388.285156 253.546875 C 388.914062 253.125 389.566406 252.734375 390.234375 252.378906 C 390.902344 252.019531 391.589844 251.695312 392.289062 251.40625 C 392.988281 251.117188 393.703125 250.859375 394.429688 250.640625 C 395.15625 250.417969 395.890625 250.234375 396.636719 250.085938 C 397.378906 249.941406 398.128906 249.828125 398.882812 249.753906 C 399.640625 249.679688 400.394531 249.644531 401.15625 249.644531 C 401.914062 249.644531 402.671875 249.679688 403.425781 249.753906 C 404.179688 249.828125 404.929688 249.941406 405.675781 250.085938 C 406.417969 250.234375 407.152344 250.417969 407.878906 250.640625 C 408.605469 250.859375 409.320312 251.117188 410.019531 251.40625 C 410.722656 251.695312 411.40625 252.019531 412.074219 252.378906 C 412.746094 252.734375 413.394531 253.125 414.027344 253.546875 C 414.65625 253.96875 415.265625 254.421875 415.851562 254.902344 C 416.4375 255.382812 417 255.890625 417.535156 256.429688 C 418.074219 256.964844 418.582031 257.527344 419.0625 258.113281 C 419.542969 258.699219 419.996094 259.308594 420.417969 259.9375 C 420.839844 260.570312 421.230469 261.21875 421.585938 261.890625 C 421.945312 262.558594 422.269531 263.242188 422.558594 263.945312 C 422.847656 264.644531 423.105469 265.359375 423.324219 266.085938 C 423.542969 266.8125 423.730469 267.546875 423.875 268.289062 C 424.023438 269.035156 424.136719 269.785156 424.210938 270.539062 C 424.285156 271.292969 424.320312 272.050781 424.320312 272.808594 Z M 424.320312 272.808594 " fill-opacity="1" fill-rule="nonzero"/></svg>