<svg xmlns="http://www.w3.org/2000/svg" xmlns:xlink="http://www.w3.org/1999/xlink" width="1920" zoomAndPan="magnify" viewBox="0 0 1440 809.999993" height="1080" preserveAspectRatio="xMidYMid meet" version="1.0"><defs><clipPath id="00f3e5af2d"><path d="M 566.613281 184.167969 L 720 184.167969 L 720 337.558594 L 566.613281 337.558594 Z M 566.613281 184.167969 " clip-rule="nonzero"/></clipPath><clipPath id="04032a3771"><path d="M 643.304688 184.167969 C 685.664062 184.167969 720 218.507812 720 260.863281 C 720 303.21875 685.664062 337.558594 643.304688 337.558594 C 600.949219 337.558594 566.613281 303.21875 566.613281 260.863281 C 566.613281 218.507812 600.949219 184.167969 643.304688 184.167969 L 643.304688 208.710938 C 614.503906 208.710938 591.152344 232.058594 591.152344 260.863281 C 591.152344 289.664062 614.503906 313.015625 643.304688 313.015625 C 672.109375 313.015625 695.457031 289.664062 695.457031 260.863281 C 695.457031 232.058594 672.109375 208.710938 643.304688 208.710938 Z M 643.304688 184.167969 " clip-rule="nonzero"/></clipPath><clipPath id="a873e5c11d"><path d="M 581 185 L 720 185 L 720 338 L 581 338 Z M 581 185 " clip-rule="nonzero"/></clipPath><clipPath id="18a043626e"><path d="M 657.914062 185.574219 C 691.054688 192.003906 716.09375 219.347656 719.589844 252.925781 C 723.082031 286.503906 704.207031 318.417969 673.101562 331.535156 C 641.992188 344.648438 605.96875 335.878906 584.367188 309.9375 C 580.03125 304.726562 580.738281 296.988281 585.945312 292.652344 C 591.152344 288.316406 598.890625 289.023438 603.226562 294.234375 C 617.914062 311.875 642.414062 317.835938 663.566406 308.917969 C 684.71875 300 697.554688 278.300781 695.179688 255.464844 C 692.800781 232.632812 675.777344 214.039062 653.238281 209.664062 C 648.9375 208.832031 645.40625 205.761719 643.976562 201.617188 C 642.546875 197.472656 643.4375 192.882812 646.3125 189.570312 C 649.1875 186.261719 653.609375 184.738281 657.914062 185.574219 Z M 657.914062 185.574219 " clip-rule="nonzero"/></clipPath></defs><g clip-path="url(#00f3e5af2d)"><g clip-path="url(#04032a3771)"><path fill="#fccab4" d="M 566.613281 184.167969 L 720 184.167969 L 720 337.558594 L 566.613281 337.558594 Z M 566.613281 184.167969 " fill-opacity="1" fill-rule="nonzero"/></g></g><g clip-path="url(#a873e5c11d)"><g clip-path="url(#18a043626e)"><path fill="#ff3131" d="M 566.613281 184.167969 L 720 184.167969 L 720 337.558594 L 566.613281 337.558594 Z M 566.613281 184.167969 " fill-opacity="1" fill-rule="nonzero"/></g></g></svg>