<svg xmlns="http://www.w3.org/2000/svg" xmlns:xlink="http://www.w3.org/1999/xlink" width="1920" zoomAndPan="magnify" viewBox="0 0 1440 809.999993" height="1080" preserveAspectRatio="xMidYMid meet" version="1.0"><defs><clipPath id="bb136c4d82"><path d="M 504.683594 199.042969 L 636.683594 199.042969 L 636.683594 271.042969 L 504.683594 271.042969 Z M 504.683594 199.042969 " clip-rule="nonzero"/></clipPath></defs><g clip-path="url(#bb136c4d82)"><path fill="#ff3131" d="M 506.390625 200.773438 C 507.476562 199.6875 508.976562 199.007812 510.640625 199.007812 C 512.300781 199.007812 513.800781 199.679688 514.886719 200.773438 L 570.660156 256.554688 L 626.429688 200.773438 C 627.515625 199.6875 629.019531 199.015625 630.679688 199.015625 C 633.996094 199.015625 636.6875 201.703125 636.6875 205.023438 C 636.6875 206.679688 636.011719 208.183594 634.925781 209.273438 L 574.90625 269.292969 C 573.820312 270.378906 572.320312 271.054688 570.660156 271.054688 C 568.996094 271.054688 567.496094 270.382812 566.410156 269.292969 L 506.390625 209.273438 C 505.304688 208.183594 504.625 206.683594 504.625 205.023438 C 504.625 203.359375 505.296875 201.859375 506.390625 200.773438 Z M 506.390625 200.773438 " fill-opacity="1" fill-rule="nonzero"/></g></svg>