<svg xmlns="http://www.w3.org/2000/svg" xmlns:xlink="http://www.w3.org/1999/xlink" width="1536" zoomAndPan="magnify" viewBox="0 0 1152 1151.999944" height="1536" preserveAspectRatio="xMidYMid meet" version="1.0"><defs><clipPath id="ec1ba6fd88"><path d="M 450.417969 345.601562 L 701.667969 345.601562 L 701.667969 806.101562 L 450.417969 806.101562 Z M 450.417969 345.601562 " clip-rule="nonzero"/></clipPath></defs><rect x="-115.2" width="1382.4" fill="#ffffff" y="-115.199994" height="1382.399933" fill-opacity="1"/><rect x="-115.2" width="1382.4" fill="#ffffff" y="-115.199994" height="1382.399933" fill-opacity="1"/><g clip-path="url(#ec1ba6fd88)"><path fill="#ff3131" d="M 456.441406 800.28125 C 452.652344 796.488281 450.285156 791.253906 450.285156 785.449219 C 450.285156 779.648438 452.628906 774.414062 456.441406 770.621094 L 651.105469 576 L 456.441406 381.378906 C 452.652344 377.585938 450.304688 372.328125 450.304688 366.546875 C 450.304688 354.964844 459.6875 345.582031 471.269531 345.582031 C 477.050781 345.582031 482.308594 347.925781 486.101562 351.71875 L 695.550781 561.171875 C 699.34375 564.960938 701.710938 570.199219 701.710938 576 C 701.710938 581.800781 699.363281 587.039062 695.550781 590.828125 L 486.101562 800.28125 C 482.308594 804.070312 477.074219 806.4375 471.269531 806.4375 C 465.46875 806.4375 460.234375 804.089844 456.441406 800.28125 Z M 456.441406 800.28125 " fill-opacity="1" fill-rule="nonzero"/></g></svg>