<svg xmlns="http://www.w3.org/2000/svg" xmlns:xlink="http://www.w3.org/1999/xlink" width="1536" zoomAndPan="magnify" viewBox="0 0 1152 1151.999944" height="1536" preserveAspectRatio="xMidYMid meet" version="1.0"><defs><clipPath id="052adef5f8"><path d="M 345.601562 450.328125 L 806.101562 450.328125 L 806.101562 701.578125 L 345.601562 701.578125 Z M 345.601562 450.328125 " clip-rule="nonzero"/></clipPath></defs><rect x="-115.2" width="1382.4" fill="#ffffff" y="-115.199994" height="1382.399933" fill-opacity="1"/><rect x="-115.2" width="1382.4" fill="#ffffff" y="-115.199994" height="1382.399933" fill-opacity="1"/><g clip-path="url(#052adef5f8)"><path fill="#ff3131" d="M 800.277344 695.554688 C 796.484375 699.34375 791.25 701.710938 785.449219 701.710938 C 779.644531 701.710938 774.410156 699.367188 770.617188 695.554688 L 575.996094 500.890625 L 381.375 695.554688 C 377.582031 699.34375 372.324219 701.691406 366.546875 701.691406 C 354.960938 701.691406 345.578125 692.308594 345.578125 680.726562 C 345.578125 674.945312 347.925781 669.6875 351.714844 665.894531 L 561.167969 456.445312 C 564.957031 452.652344 570.195312 450.285156 575.996094 450.285156 C 581.796875 450.285156 587.035156 452.632812 590.824219 456.445312 L 800.277344 665.894531 C 804.066406 669.6875 806.433594 674.921875 806.433594 680.726562 C 806.433594 686.527344 804.089844 691.761719 800.277344 695.554688 Z M 800.277344 695.554688 " fill-opacity="1" fill-rule="nonzero"/></g></svg>