<svg xmlns="http://www.w3.org/2000/svg" xmlns:xlink="http://www.w3.org/1999/xlink" width="1920" zoomAndPan="magnify" viewBox="0 0 1440 809.999993" height="1080" preserveAspectRatio="xMidYMid meet" version="1.0"><defs><filter x="0%" y="0%" width="100%" height="100%" id="ce0ce3e94e"><feColorMatrix values="0 0 0 0 1 0 0 0 0 1 0 0 0 0 1 0 0 0 1 0" color-interpolation-filters="sRGB"/></filter><clipPath id="0818267574"><path d="M 341.398438 131 L 474 131 L 474 263 L 341.398438 263 Z M 341.398438 131 " clip-rule="nonzero"/></clipPath><clipPath id="a60211e881"><path d="M 407 207 L 466 207 L 466 263.410156 L 407 263.410156 Z M 407 207 " clip-rule="nonzero"/></clipPath><mask id="2e0a3ab5eb"><g filter="url(#ce0ce3e94e)"><rect x="-144" width="1728" fill="#000000" y="-80.999999" height="971.999992" fill-opacity="0.6"/></g></mask><clipPath id="419a212743"><path d="M 0.519531 0.601562 L 58.359375 0.601562 L 58.359375 56 L 0.519531 56 Z M 0.519531 0.601562 " clip-rule="nonzero"/></clipPath><clipPath id="329f075f2d"><rect x="0" width="59" y="0" height="57"/></clipPath><clipPath id="30921f3b47"><path d="M 349 207 L 408 207 L 408 263.410156 L 349 263.410156 Z M 349 207 " clip-rule="nonzero"/></clipPath><mask id="45f15ac5ae"><g filter="url(#ce0ce3e94e)"><rect x="-144" width="1728" fill="#000000" y="-80.999999" height="971.999992" fill-opacity="0.5"/></g></mask><clipPath id="eadfd1f695"><path d="M 1 0.601562 L 58.761719 0.601562 L 58.761719 56 L 1 56 Z M 1 0.601562 " clip-rule="nonzero"/></clipPath><clipPath id="aea2412c25"><rect x="0" width="59" y="0" height="57"/></clipPath><clipPath id="0cec4bff09"><path d="M 407 130.660156 L 465 130.660156 L 465 186 L 407 186 Z M 407 130.660156 " clip-rule="nonzero"/></clipPath><mask id="35188fb70f"><g filter="url(#ce0ce3e94e)"><rect x="-144" width="1728" fill="#000000" y="-80.999999" height="971.999992" fill-opacity="0.1"/></g></mask><clipPath id="46a41be4a6"><path d="M 0.519531 1 L 57.640625 1 L 57.640625 55.28125 L 0.519531 55.28125 Z M 0.519531 1 " clip-rule="nonzero"/></clipPath><clipPath id="6a4ef613f2"><rect x="0" width="58" y="0" height="56"/></clipPath><clipPath id="407ed0fc7b"><path d="M 350 130.660156 L 408 130.660156 L 408 186 L 350 186 Z M 350 130.660156 " clip-rule="nonzero"/></clipPath><mask id="b55b8c2342"><g filter="url(#ce0ce3e94e)"><rect x="-144" width="1728" fill="#000000" y="-80.999999" height="971.999992" fill-opacity="0.3"/></g></mask><clipPath id="6c0c95dd53"><path d="M 0.640625 1 L 57.761719 1 L 57.761719 55.28125 L 0.640625 55.28125 Z M 0.640625 1 " clip-rule="nonzero"/></clipPath><clipPath id="5722775887"><rect x="0" width="58" y="0" height="56"/></clipPath><clipPath id="c3f762cde7"><path d="M 341.398438 163 L 389 163 L 389 230 L 341.398438 230 Z M 341.398438 163 " clip-rule="nonzero"/></clipPath><mask id="44e5d34c0e"><g filter="url(#ce0ce3e94e)"><rect x="-144" width="1728" fill="#000000" y="-80.999999" height="971.999992" fill-opacity="0.4"/></g></mask><clipPath id="8cc2322ea2"><path d="M 0.519531 0.441406 L 47.320312 0.441406 L 47.320312 66.679688 L 0.519531 66.679688 Z M 0.519531 0.441406 " clip-rule="nonzero"/></clipPath><clipPath id="4768dab7df"><rect x="0" width="48" y="0" height="67"/></clipPath></defs><g clip-path="url(#0818267574)"><path fill="#ff0000" d="M 407.71875 131.027344 C 371.335938 131.027344 341.839844 160.523438 341.839844 196.90625 C 341.839844 233.292969 371.335938 262.785156 407.71875 262.785156 C 444.105469 262.785156 473.597656 233.292969 473.597656 196.90625 C 473.601562 160.523438 444.105469 131.027344 407.71875 131.027344 Z M 407.71875 219.726562 C 395.117188 219.726562 384.898438 209.511719 384.898438 196.90625 C 384.898438 184.304688 395.117188 174.085938 407.71875 174.085938 C 420.324219 174.085938 430.539062 184.304688 430.539062 196.90625 C 430.539062 209.511719 420.324219 219.726562 407.71875 219.726562 Z M 407.71875 219.726562 " fill-opacity="1" fill-rule="nonzero"/></g><g clip-path="url(#a60211e881)"><g mask="url(#2e0a3ab5eb)"><g transform="matrix(1, 0, 0, 1, 407, 207)"><g clip-path="url(#329f075f2d)"><g clip-path="url(#419a212743)"><path fill="#ffffff" d="M 0.71875 12.726562 C 0.695312 12.726562 0.667969 12.726562 0.644531 12.726562 L 0.644531 55.785156 C 0.671875 55.785156 0.695312 55.785156 0.71875 55.785156 C 25.273438 55.785156 46.6875 42.351562 58.019531 22.4375 L 20.71875 0.898438 C 16.835938 7.949219 9.335938 12.726562 0.71875 12.726562 Z M 0.71875 12.726562 " fill-opacity="1" fill-rule="nonzero"/></g></g></g></g></g><g clip-path="url(#30921f3b47)"><g mask="url(#45f15ac5ae)"><g transform="matrix(1, 0, 0, 1, 349, 207)"><g clip-path="url(#aea2412c25)"><g clip-path="url(#eadfd1f695)"><path fill="#ffffff" d="M 38.683594 0.835938 L 1.382812 22.371094 C 12.695312 42.304688 34.09375 55.757812 58.644531 55.785156 L 58.644531 12.726562 C 50.03125 12.699219 42.542969 7.898438 38.683594 0.835938 Z M 38.683594 0.835938 " fill-opacity="1" fill-rule="nonzero"/></g></g></g></g></g><g clip-path="url(#0cec4bff09)"><g mask="url(#35188fb70f)"><g transform="matrix(1, 0, 0, 1, 407, 130)"><g clip-path="url(#6a4ef613f2)"><g clip-path="url(#46a41be4a6)"><path fill="#ffffff" d="M 0.71875 44.085938 C 8.96875 44.085938 16.191406 48.464844 20.203125 55.019531 L 57.5 33.484375 C 46.042969 14.0625 24.90625 1.027344 0.71875 1.027344 C 0.695312 1.027344 0.667969 1.027344 0.644531 1.027344 L 0.644531 44.089844 C 0.667969 44.089844 0.695312 44.085938 0.71875 44.085938 Z M 0.71875 44.085938 " fill-opacity="1" fill-rule="nonzero"/></g></g></g></g></g><g clip-path="url(#407ed0fc7b)"><g mask="url(#b55b8c2342)"><g transform="matrix(1, 0, 0, 1, 350, 130)"><g clip-path="url(#5722775887)"><g clip-path="url(#6c0c95dd53)"><path fill="#ffffff" d="M 57.644531 44.089844 L 57.644531 1.027344 C 33.464844 1.054688 12.339844 14.109375 0.902344 33.550781 L 38.199219 55.082031 C 42.1875 48.511719 49.402344 44.113281 57.644531 44.089844 Z M 57.644531 44.089844 " fill-opacity="1" fill-rule="nonzero"/></g></g></g></g></g><g clip-path="url(#c3f762cde7)"><g mask="url(#44e5d34c0e)"><g transform="matrix(1, 0, 0, 1, 341, 163)"><g clip-path="url(#4768dab7df)"><g clip-path="url(#8cc2322ea2)"><path fill="#ffffff" d="M 43.898438 33.90625 C 43.898438 29.578125 45.105469 25.53125 47.199219 22.082031 L 9.902344 0.550781 C 4.144531 10.335938 0.839844 21.734375 0.839844 33.90625 C 0.839844 45.710938 3.945312 56.789062 9.382812 66.371094 L 46.683594 44.835938 C 44.910156 41.589844 43.898438 37.867188 43.898438 33.90625 Z M 43.898438 33.90625 " fill-opacity="1" fill-rule="nonzero"/></g></g></g></g></g></svg>