<svg xmlns="http://www.w3.org/2000/svg" xmlns:xlink="http://www.w3.org/1999/xlink" width="1920" zoomAndPan="magnify" viewBox="0 0 1440 809.999993" height="1080" preserveAspectRatio="xMidYMid meet" version="1.0"><defs><clipPath id="0a697d6230"><path d="M 566 516 L 655.25 516 L 655.25 679.257812 L 566 679.257812 Z M 566 516 " clip-rule="nonzero"/></clipPath></defs><g clip-path="url(#0a697d6230)"><path fill="#ff3131" d="M 652.847656 518.226562 C 654.191406 519.570312 655.027344 521.425781 655.027344 523.480469 C 655.027344 525.535156 654.199219 527.386719 652.847656 528.730469 L 583.90625 597.660156 L 652.847656 666.585938 C 654.191406 667.929688 655.019531 669.792969 655.019531 671.839844 C 655.019531 675.941406 651.699219 679.265625 647.597656 679.265625 C 645.546875 679.265625 643.6875 678.433594 642.34375 677.089844 L 568.164062 602.910156 C 566.820312 601.566406 565.984375 599.714844 565.984375 597.660156 C 565.984375 595.605469 566.8125 593.75 568.164062 592.40625 L 642.34375 518.226562 C 643.6875 516.886719 645.542969 516.046875 647.597656 516.046875 C 649.652344 516.046875 651.503906 516.878906 652.847656 518.226562 Z M 652.847656 518.226562 " fill-opacity="1" fill-rule="nonzero"/></g></svg>