<svg xmlns="http://www.w3.org/2000/svg" xmlns:xlink="http://www.w3.org/1999/xlink" width="1920" zoomAndPan="magnify" viewBox="0 0 1440 809.999993" height="1080" preserveAspectRatio="xMidYMid meet" version="1.0"><defs><clipPath id="78fabbd370"><path d="M 581.488281 292.476562 L 720.238281 292.476562 L 720.238281 368.226562 L 581.488281 368.226562 Z M 581.488281 292.476562 " clip-rule="nonzero"/></clipPath></defs><g clip-path="url(#78fabbd370)"><path fill="#ff3131" d="M 718.152344 366.1875 C 717.011719 367.328125 715.4375 368.039062 713.695312 368.039062 C 711.953125 368.039062 710.378906 367.335938 709.238281 366.1875 L 650.738281 307.675781 L 592.238281 366.1875 C 591.101562 367.328125 589.519531 368.03125 587.78125 368.03125 C 584.300781 368.03125 581.480469 365.210938 581.480469 361.730469 C 581.480469 359.992188 582.1875 358.414062 583.324219 357.273438 L 646.28125 294.316406 C 647.421875 293.179688 648.996094 292.464844 650.738281 292.464844 C 652.484375 292.464844 654.058594 293.171875 655.195312 294.316406 L 718.152344 357.273438 C 719.292969 358.414062 720.003906 359.988281 720.003906 361.730469 C 720.003906 363.476562 719.296875 365.050781 718.152344 366.1875 Z M 718.152344 366.1875 " fill-opacity="1" fill-rule="nonzero"/></g></svg>