<svg xmlns="http://www.w3.org/2000/svg" xmlns:xlink="http://www.w3.org/1999/xlink" width="1920" zoomAndPan="magnify" viewBox="0 0 1440 809.999993" height="1080" preserveAspectRatio="xMidYMid meet" version="1.0"><path fill="#ff3131" d="M 852.808594 637.0625 C 850.855469 638.535156 849.132812 639.832031 847.234375 641.261719 C 836.785156 632.75 824.957031 629.246094 811.707031 631.804688 C 801.746094 633.726562 793.585938 638.855469 787.183594 646.773438 C 774.742188 662.167969 775.300781 684.761719 788.535156 699.777344 C 801.933594 714.984375 824.488281 718.261719 841.605469 707.699219 C 857.257812 698.039062 868.066406 675.9375 856.117188 652.039062 C 857.601562 650.378906 859.175781 648.613281 860.792969 646.804688 C 871.558594 661.390625 873.460938 690.890625 851.113281 709.757812 C 830.800781 726.90625 800.089844 724.382812 782.726562 704.191406 C 765.289062 683.917969 767.484375 653.292969 787.566406 635.835938 C 808.472656 617.667969 837.8125 621.738281 852.808594 637.0625 Z M 852.808594 637.0625 " fill-opacity="1" fill-rule="nonzero"/><path fill="#ff3131" d="M 811.707031 679.257812 C 815.089844 675.589844 817.832031 672.542969 820.644531 669.566406 C 834.128906 655.300781 848.9375 642.613281 865.492188 632.019531 C 866.707031 631.242188 867.964844 630.488281 869.300781 629.972656 C 869.761719 629.792969 870.671875 630.226562 871.078125 630.65625 C 871.3125 630.910156 871.128906 631.839844 870.832031 632.25 C 870.269531 633.019531 869.496094 633.632812 868.804688 634.308594 C 852.40625 650.332031 838.109375 668 826.988281 688.132812 C 825.882812 690.136719 824.824219 692.171875 823.726562 694.179688 C 821.699219 697.894531 818.566406 699.871094 814.328125 699.839844 C 809.933594 699.808594 806.867188 697.585938 804.75 693.800781 C 801.164062 687.386719 797.582031 680.964844 793.820312 674.648438 C 792.222656 671.964844 790.1875 669.539062 788.347656 667.003906 C 787.921875 666.417969 787.460938 665.859375 787.027344 665.277344 C 786.355469 664.378906 785.738281 663.445312 786.574219 662.339844 C 787.484375 661.128906 788.675781 661.304688 789.828125 661.871094 C 791.664062 662.777344 793.648438 663.519531 795.234375 664.761719 C 799.980469 668.460938 804.59375 672.34375 809.195312 676.222656 C 810.097656 676.984375 810.730469 678.058594 811.707031 679.257812 Z M 811.707031 679.257812 " fill-opacity="1" fill-rule="nonzero"/></svg>