<svg xmlns="http://www.w3.org/2000/svg" xmlns:xlink="http://www.w3.org/1999/xlink" width="1536" zoomAndPan="magnify" viewBox="0 0 1152 1151.999944" height="1536" preserveAspectRatio="xMidYMid meet" version="1.0"><rect x="-115.2" width="1382.4" fill="#ffffff" y="-115.199994" height="1382.399933" fill-opacity="1"/><rect x="-115.2" width="1382.4" fill="#ffffff" y="-115.199994" height="1382.399933" fill-opacity="1"/><path fill="#ff3131" d="M 717.011719 427.417969 C 708.773438 433.621094 701.507812 439.09375 693.496094 445.132812 C 649.429688 409.214844 599.542969 394.441406 543.65625 405.226562 C 501.636719 413.335938 467.203125 434.96875 440.207031 468.371094 C 387.730469 533.3125 390.089844 628.613281 445.902344 691.957031 C 502.417969 756.097656 597.554688 769.925781 669.765625 725.355469 C 735.789062 684.613281 781.375 591.390625 730.972656 490.578125 C 737.226562 483.582031 743.875 476.136719 750.699219 468.5 C 796.101562 530.027344 804.121094 654.46875 709.871094 734.046875 C 624.1875 806.386719 494.652344 795.742188 421.402344 710.566406 C 347.84375 625.042969 357.105469 495.867188 441.820312 422.242188 C 530 345.609375 653.753906 362.769531 717.011719 427.417969 Z M 717.011719 427.417969 " fill-opacity="1" fill-rule="nonzero"/><path fill="#ff3131" d="M 543.65625 605.402344 C 557.917969 589.917969 569.484375 577.070312 581.351562 564.515625 C 638.21875 504.335938 700.679688 450.824219 770.523438 406.148438 C 775.644531 402.867188 780.945312 399.675781 786.574219 397.5 C 788.523438 396.746094 792.359375 398.570312 794.074219 400.398438 C 795.070312 401.457031 794.289062 405.386719 793.039062 407.105469 C 790.671875 410.351562 787.410156 412.945312 784.496094 415.789062 C 715.316406 483.390625 655.015625 557.90625 608.113281 642.824219 C 603.4375 651.28125 598.976562 659.863281 594.347656 668.34375 C 585.789062 684.003906 572.585938 692.339844 554.703125 692.210938 C 536.164062 692.078125 523.226562 682.710938 514.304688 666.742188 C 499.175781 639.679688 484.058594 612.59375 468.203125 585.957031 C 461.460938 574.632812 452.878906 564.402344 445.109375 553.703125 C 443.316406 551.230469 441.371094 548.878906 439.542969 546.429688 C 436.71875 542.640625 434.113281 538.703125 437.636719 534.027344 C 441.480469 528.921875 446.503906 529.667969 451.359375 532.0625 C 459.101562 535.878906 467.46875 539.019531 474.167969 544.246094 C 494.191406 559.859375 513.636719 576.230469 533.058594 592.597656 C 536.851562 595.796875 539.527344 600.335938 543.65625 605.402344 Z M 543.65625 605.402344 " fill-opacity="1" fill-rule="nonzero"/></svg>